<mxfile host="app.diagrams.net" agent="Mozilla/5.0 (Windows NT 10.0; Win64; x64) AppleWebKit/537.36 (KHTML, like Gecko) Chrome/131.0.0.0 Safari/537.36 Edg/131.0.0.0" version="25.0.0">
  <diagram name="Page-1" id="jLV9HYU4HxmSEPS7C3Id">
    <mxGraphModel dx="2339" dy="830" grid="0" gridSize="10" guides="1" tooltips="1" connect="1" arrows="1" fold="1" page="1" pageScale="1" pageWidth="850" pageHeight="1100" math="0" shadow="0">
      <root>
        <mxCell id="0" />
        <mxCell id="1" parent="0" />
        <mxCell id="997hCacXFFH7ndU-Lx0a-1" value="FPGA Board&lt;div&gt;(Altera DE2-70 Board)&lt;/div&gt;" style="rounded=1;whiteSpace=wrap;html=1;arcSize=13;" vertex="1" parent="1">
          <mxGeometry x="-428" y="190" width="197" height="116" as="geometry" />
        </mxCell>
        <mxCell id="997hCacXFFH7ndU-Lx0a-3" value="Screen Display&lt;div&gt;(OLED 0.96 inch)&lt;/div&gt;" style="rounded=1;whiteSpace=wrap;html=1;" vertex="1" parent="1">
          <mxGeometry x="-138" y="178" width="97" height="57" as="geometry" />
        </mxCell>
        <mxCell id="997hCacXFFH7ndU-Lx0a-4" value="Power Supply" style="rounded=1;whiteSpace=wrap;html=1;" vertex="1" parent="1">
          <mxGeometry x="-390" y="350" width="120" height="70" as="geometry" />
        </mxCell>
        <mxCell id="997hCacXFFH7ndU-Lx0a-5" value="Barrier&lt;div&gt;(Motor Servo)&lt;/div&gt;" style="rounded=1;whiteSpace=wrap;html=1;" vertex="1" parent="1">
          <mxGeometry x="-138" y="250" width="97" height="54" as="geometry" />
        </mxCell>
        <mxCell id="997hCacXFFH7ndU-Lx0a-6" value="Check in&lt;br&gt;&lt;div&gt;(Ultrasonic Sensor)&lt;/div&gt;" style="rounded=1;whiteSpace=wrap;html=1;" vertex="1" parent="1">
          <mxGeometry x="-458" y="54" width="120" height="70" as="geometry" />
        </mxCell>
        <mxCell id="997hCacXFFH7ndU-Lx0a-10" value="" style="endArrow=classic;html=1;rounded=0;entryX=0.5;entryY=1;entryDx=0;entryDy=0;exitX=0.5;exitY=0;exitDx=0;exitDy=0;" edge="1" parent="1" source="997hCacXFFH7ndU-Lx0a-4" target="997hCacXFFH7ndU-Lx0a-1">
          <mxGeometry width="50" height="50" relative="1" as="geometry">
            <mxPoint x="-385" y="330" as="sourcePoint" />
            <mxPoint x="-335" y="280" as="targetPoint" />
          </mxGeometry>
        </mxCell>
        <mxCell id="997hCacXFFH7ndU-Lx0a-11" value="" style="endArrow=classic;html=1;rounded=0;entryX=0;entryY=0.5;entryDx=0;entryDy=0;" edge="1" parent="1" target="997hCacXFFH7ndU-Lx0a-3">
          <mxGeometry width="50" height="50" relative="1" as="geometry">
            <mxPoint x="-231" y="206" as="sourcePoint" />
            <mxPoint x="-159" y="203" as="targetPoint" />
          </mxGeometry>
        </mxCell>
        <mxCell id="997hCacXFFH7ndU-Lx0a-12" value="DC 12V" style="text;html=1;align=center;verticalAlign=middle;whiteSpace=wrap;rounded=0;" vertex="1" parent="1">
          <mxGeometry x="-335" y="316" width="60" height="30" as="geometry" />
        </mxCell>
        <mxCell id="997hCacXFFH7ndU-Lx0a-15" value="Detection signal" style="text;html=1;align=center;verticalAlign=middle;whiteSpace=wrap;rounded=0;" vertex="1" parent="1">
          <mxGeometry x="-398" y="139" width="60" height="30" as="geometry" />
        </mxCell>
        <mxCell id="997hCacXFFH7ndU-Lx0a-16" value="Control signal" style="text;html=1;align=center;verticalAlign=middle;whiteSpace=wrap;rounded=0;" vertex="1" parent="1">
          <mxGeometry x="-234" y="252" width="93" height="30" as="geometry" />
        </mxCell>
        <mxCell id="997hCacXFFH7ndU-Lx0a-18" value="Data display" style="text;html=1;align=center;verticalAlign=middle;whiteSpace=wrap;rounded=0;" vertex="1" parent="1">
          <mxGeometry x="-225" y="180" width="81" height="30" as="geometry" />
        </mxCell>
        <mxCell id="997hCacXFFH7ndU-Lx0a-20" value="Check out&lt;br&gt;&lt;div&gt;(Ultrasonic Sensor)&lt;/div&gt;" style="rounded=1;whiteSpace=wrap;html=1;" vertex="1" parent="1">
          <mxGeometry x="-330" y="54" width="120" height="70" as="geometry" />
        </mxCell>
        <mxCell id="997hCacXFFH7ndU-Lx0a-23" value="" style="endArrow=classic;html=1;rounded=0;exitX=1;exitY=0.75;exitDx=0;exitDy=0;entryX=0;entryY=0.5;entryDx=0;entryDy=0;" edge="1" parent="1" source="997hCacXFFH7ndU-Lx0a-1" target="997hCacXFFH7ndU-Lx0a-5">
          <mxGeometry width="50" height="50" relative="1" as="geometry">
            <mxPoint x="-243" y="264" as="sourcePoint" />
            <mxPoint x="-193" y="214" as="targetPoint" />
            <Array as="points" />
          </mxGeometry>
        </mxCell>
        <mxCell id="997hCacXFFH7ndU-Lx0a-24" value="" style="endArrow=classic;html=1;rounded=0;exitX=0.5;exitY=1;exitDx=0;exitDy=0;entryX=0.153;entryY=0.012;entryDx=0;entryDy=0;entryPerimeter=0;" edge="1" parent="1" source="997hCacXFFH7ndU-Lx0a-6" target="997hCacXFFH7ndU-Lx0a-1">
          <mxGeometry width="50" height="50" relative="1" as="geometry">
            <mxPoint x="-430" y="192" as="sourcePoint" />
            <mxPoint x="-400" y="187" as="targetPoint" />
          </mxGeometry>
        </mxCell>
        <mxCell id="997hCacXFFH7ndU-Lx0a-26" value="" style="endArrow=classic;html=1;rounded=0;exitX=0.5;exitY=1;exitDx=0;exitDy=0;entryX=0.807;entryY=0.009;entryDx=0;entryDy=0;entryPerimeter=0;" edge="1" parent="1" source="997hCacXFFH7ndU-Lx0a-20" target="997hCacXFFH7ndU-Lx0a-1">
          <mxGeometry width="50" height="50" relative="1" as="geometry">
            <mxPoint x="-251.5" y="124" as="sourcePoint" />
            <mxPoint x="-250.5" y="194" as="targetPoint" />
          </mxGeometry>
        </mxCell>
        <mxCell id="997hCacXFFH7ndU-Lx0a-27" value="Detection signal" style="text;html=1;align=center;verticalAlign=middle;whiteSpace=wrap;rounded=0;" vertex="1" parent="1">
          <mxGeometry x="-268" y="142" width="60" height="30" as="geometry" />
        </mxCell>
        <mxCell id="997hCacXFFH7ndU-Lx0a-28" value="Camera&lt;div&gt;(Check in)&lt;/div&gt;" style="rounded=1;whiteSpace=wrap;html=1;" vertex="1" parent="1">
          <mxGeometry x="-664" y="178" width="120" height="70" as="geometry" />
        </mxCell>
        <mxCell id="997hCacXFFH7ndU-Lx0a-29" value="" style="endArrow=classic;html=1;rounded=0;exitX=1;exitY=0.5;exitDx=0;exitDy=0;entryX=0;entryY=0.5;entryDx=0;entryDy=0;" edge="1" parent="1" source="997hCacXFFH7ndU-Lx0a-28">
          <mxGeometry width="50" height="50" relative="1" as="geometry">
            <mxPoint x="-515" y="218.5" as="sourcePoint" />
            <mxPoint x="-428" y="213" as="targetPoint" />
            <Array as="points" />
          </mxGeometry>
        </mxCell>
        <mxCell id="997hCacXFFH7ndU-Lx0a-30" value="Data for check in" style="text;html=1;align=center;verticalAlign=middle;whiteSpace=wrap;rounded=0;" vertex="1" parent="1">
          <mxGeometry x="-544" y="178" width="109" height="30" as="geometry" />
        </mxCell>
        <mxCell id="997hCacXFFH7ndU-Lx0a-31" value="Camera&lt;div&gt;(Check out)&lt;/div&gt;" style="rounded=1;whiteSpace=wrap;html=1;" vertex="1" parent="1">
          <mxGeometry x="-664" y="255" width="120" height="70" as="geometry" />
        </mxCell>
        <mxCell id="997hCacXFFH7ndU-Lx0a-32" value="" style="endArrow=classic;html=1;rounded=0;exitX=1;exitY=0.5;exitDx=0;exitDy=0;entryX=0;entryY=0.5;entryDx=0;entryDy=0;" edge="1" parent="1" source="997hCacXFFH7ndU-Lx0a-31">
          <mxGeometry width="50" height="50" relative="1" as="geometry">
            <mxPoint x="-515" y="295.5" as="sourcePoint" />
            <mxPoint x="-428" y="290" as="targetPoint" />
            <Array as="points" />
          </mxGeometry>
        </mxCell>
        <mxCell id="997hCacXFFH7ndU-Lx0a-33" value="Data for check out" style="text;html=1;align=center;verticalAlign=middle;whiteSpace=wrap;rounded=0;" vertex="1" parent="1">
          <mxGeometry x="-544" y="255" width="109" height="30" as="geometry" />
        </mxCell>
        <mxCell id="997hCacXFFH7ndU-Lx0a-34" value="Start" style="ellipse;whiteSpace=wrap;html=1;" vertex="1" parent="1">
          <mxGeometry x="383" y="33" width="74" height="50" as="geometry" />
        </mxCell>
        <mxCell id="997hCacXFFH7ndU-Lx0a-35" value="IDLE" style="rounded=0;whiteSpace=wrap;html=1;" vertex="1" parent="1">
          <mxGeometry x="382" y="117" width="75" height="38" as="geometry" />
        </mxCell>
        <mxCell id="997hCacXFFH7ndU-Lx0a-36" value="" style="endArrow=classic;html=1;rounded=0;exitX=0.5;exitY=1;exitDx=0;exitDy=0;entryX=0.5;entryY=0;entryDx=0;entryDy=0;" edge="1" parent="1" source="997hCacXFFH7ndU-Lx0a-34" target="997hCacXFFH7ndU-Lx0a-35">
          <mxGeometry width="50" height="50" relative="1" as="geometry">
            <mxPoint x="473" y="118" as="sourcePoint" />
            <mxPoint x="523" y="68" as="targetPoint" />
          </mxGeometry>
        </mxCell>
        <mxCell id="997hCacXFFH7ndU-Lx0a-37" value="Sensor&amp;nbsp;&lt;div&gt;Entrance&lt;/div&gt;" style="rhombus;whiteSpace=wrap;html=1;" vertex="1" parent="1">
          <mxGeometry x="366.72" y="185.5" width="104.5" height="55" as="geometry" />
        </mxCell>
        <mxCell id="997hCacXFFH7ndU-Lx0a-38" value="" style="endArrow=classic;html=1;rounded=0;exitX=0.5;exitY=1;exitDx=0;exitDy=0;entryX=0.5;entryY=0;entryDx=0;entryDy=0;" edge="1" parent="1" source="997hCacXFFH7ndU-Lx0a-35" target="997hCacXFFH7ndU-Lx0a-37">
          <mxGeometry width="50" height="50" relative="1" as="geometry">
            <mxPoint x="419" y="160" as="sourcePoint" />
            <mxPoint x="420" y="195" as="targetPoint" />
          </mxGeometry>
        </mxCell>
        <mxCell id="997hCacXFFH7ndU-Lx0a-39" value="" style="endArrow=classic;html=1;rounded=0;exitX=0.5;exitY=1;exitDx=0;exitDy=0;entryX=0.5;entryY=0;entryDx=0;entryDy=0;" edge="1" parent="1" source="997hCacXFFH7ndU-Lx0a-37" target="997hCacXFFH7ndU-Lx0a-44">
          <mxGeometry width="50" height="50" relative="1" as="geometry">
            <mxPoint x="419.26" y="287" as="sourcePoint" />
            <mxPoint x="419" y="319" as="targetPoint" />
          </mxGeometry>
        </mxCell>
        <mxCell id="997hCacXFFH7ndU-Lx0a-40" value="Car entrance" style="text;html=1;align=center;verticalAlign=middle;whiteSpace=wrap;rounded=0;" vertex="1" parent="1">
          <mxGeometry x="420.47" y="240.5" width="78" height="30" as="geometry" />
        </mxCell>
        <mxCell id="997hCacXFFH7ndU-Lx0a-41" value="" style="endArrow=classic;html=1;rounded=0;exitX=1;exitY=0.5;exitDx=0;exitDy=0;entryX=1;entryY=0.5;entryDx=0;entryDy=0;" edge="1" parent="1" source="997hCacXFFH7ndU-Lx0a-37" target="997hCacXFFH7ndU-Lx0a-35">
          <mxGeometry width="50" height="50" relative="1" as="geometry">
            <mxPoint x="521" y="222" as="sourcePoint" />
            <mxPoint x="521" y="265" as="targetPoint" />
            <Array as="points">
              <mxPoint x="526" y="213" />
              <mxPoint x="526" y="136" />
            </Array>
          </mxGeometry>
        </mxCell>
        <mxCell id="997hCacXFFH7ndU-Lx0a-42" value="No car" style="text;html=1;align=center;verticalAlign=middle;whiteSpace=wrap;rounded=0;" vertex="1" parent="1">
          <mxGeometry x="527" y="171" width="47" height="30" as="geometry" />
        </mxCell>
        <mxCell id="997hCacXFFH7ndU-Lx0a-44" value="Read License Plate" style="rounded=0;whiteSpace=wrap;html=1;" vertex="1" parent="1">
          <mxGeometry x="359.5" y="274" width="120" height="27" as="geometry" />
        </mxCell>
        <mxCell id="997hCacXFFH7ndU-Lx0a-46" value="" style="endArrow=classic;html=1;rounded=0;exitX=0.5;exitY=1;exitDx=0;exitDy=0;entryX=0.5;entryY=0;entryDx=0;entryDy=0;" edge="1" parent="1" source="997hCacXFFH7ndU-Lx0a-44" target="997hCacXFFH7ndU-Lx0a-47">
          <mxGeometry width="50" height="50" relative="1" as="geometry">
            <mxPoint x="419.58" y="396" as="sourcePoint" />
            <mxPoint x="419.58" y="444" as="targetPoint" />
          </mxGeometry>
        </mxCell>
        <mxCell id="997hCacXFFH7ndU-Lx0a-47" value="Generate Password" style="rounded=0;whiteSpace=wrap;html=1;" vertex="1" parent="1">
          <mxGeometry x="360" y="331" width="120" height="30" as="geometry" />
        </mxCell>
        <mxCell id="997hCacXFFH7ndU-Lx0a-48" value="" style="endArrow=classic;html=1;rounded=0;exitX=0.5;exitY=1;exitDx=0;exitDy=0;entryX=0.5;entryY=0;entryDx=0;entryDy=0;" edge="1" parent="1" target="997hCacXFFH7ndU-Lx0a-64" source="997hCacXFFH7ndU-Lx0a-47">
          <mxGeometry width="50" height="50" relative="1" as="geometry">
            <mxPoint x="420.5" y="438" as="sourcePoint" />
            <mxPoint x="420.08" y="529" as="targetPoint" />
          </mxGeometry>
        </mxCell>
        <mxCell id="997hCacXFFH7ndU-Lx0a-49" value="Check in" style="rounded=0;whiteSpace=wrap;html=1;" vertex="1" parent="1">
          <mxGeometry x="386.25" y="449" width="67.5" height="30" as="geometry" />
        </mxCell>
        <mxCell id="997hCacXFFH7ndU-Lx0a-50" value="Sensor&amp;nbsp;&lt;div&gt;Exit&lt;/div&gt;" style="rhombus;whiteSpace=wrap;html=1;" vertex="1" parent="1">
          <mxGeometry x="367.75" y="506" width="104.5" height="47" as="geometry" />
        </mxCell>
        <mxCell id="997hCacXFFH7ndU-Lx0a-51" value="" style="endArrow=classic;html=1;rounded=0;exitX=0.5;exitY=1;exitDx=0;exitDy=0;entryX=0.5;entryY=0;entryDx=0;entryDy=0;" edge="1" parent="1" target="997hCacXFFH7ndU-Lx0a-50" source="997hCacXFFH7ndU-Lx0a-49">
          <mxGeometry width="50" height="50" relative="1" as="geometry">
            <mxPoint x="419.47" y="544" as="sourcePoint" />
            <mxPoint x="419.47" y="584" as="targetPoint" />
          </mxGeometry>
        </mxCell>
        <mxCell id="997hCacXFFH7ndU-Lx0a-52" value="" style="endArrow=classic;html=1;rounded=0;exitX=0;exitY=0.5;exitDx=0;exitDy=0;entryX=0;entryY=0.5;entryDx=0;entryDy=0;" edge="1" parent="1" source="997hCacXFFH7ndU-Lx0a-50" target="997hCacXFFH7ndU-Lx0a-35">
          <mxGeometry width="50" height="50" relative="1" as="geometry">
            <mxPoint x="282" y="507" as="sourcePoint" />
            <mxPoint x="332" y="457" as="targetPoint" />
            <Array as="points">
              <mxPoint x="309" y="530" />
              <mxPoint x="313" y="136" />
            </Array>
          </mxGeometry>
        </mxCell>
        <mxCell id="997hCacXFFH7ndU-Lx0a-53" value="No car" style="text;html=1;align=center;verticalAlign=middle;whiteSpace=wrap;rounded=0;" vertex="1" parent="1">
          <mxGeometry x="261" y="296" width="47" height="30" as="geometry" />
        </mxCell>
        <mxCell id="997hCacXFFH7ndU-Lx0a-54" value="" style="endArrow=classic;html=1;rounded=0;exitX=0.5;exitY=1;exitDx=0;exitDy=0;entryX=0.5;entryY=0;entryDx=0;entryDy=0;" edge="1" parent="1" source="997hCacXFFH7ndU-Lx0a-50" target="997hCacXFFH7ndU-Lx0a-55">
          <mxGeometry width="50" height="50" relative="1" as="geometry">
            <mxPoint x="418.68" y="594" as="sourcePoint" />
            <mxPoint x="418.68" y="626" as="targetPoint" />
          </mxGeometry>
        </mxCell>
        <mxCell id="997hCacXFFH7ndU-Lx0a-55" value="Request Password" style="rounded=0;whiteSpace=wrap;html=1;" vertex="1" parent="1">
          <mxGeometry x="385.94000000000005" y="584" width="67.5" height="30" as="geometry" />
        </mxCell>
        <mxCell id="997hCacXFFH7ndU-Lx0a-56" value="Car exit" style="text;html=1;align=center;verticalAlign=middle;whiteSpace=wrap;rounded=0;" vertex="1" parent="1">
          <mxGeometry x="427.5" y="557" width="55" height="23" as="geometry" />
        </mxCell>
        <mxCell id="997hCacXFFH7ndU-Lx0a-57" value="Check&amp;nbsp;&lt;div&gt;password&lt;/div&gt;" style="rhombus;whiteSpace=wrap;html=1;" vertex="1" parent="1">
          <mxGeometry x="366.72" y="650" width="106.94" height="66" as="geometry" />
        </mxCell>
        <mxCell id="997hCacXFFH7ndU-Lx0a-58" value="" style="endArrow=classic;html=1;rounded=0;exitX=0.5;exitY=1;exitDx=0;exitDy=0;entryX=0.5;entryY=0;entryDx=0;entryDy=0;" edge="1" parent="1" source="997hCacXFFH7ndU-Lx0a-55" target="997hCacXFFH7ndU-Lx0a-57">
          <mxGeometry width="50" height="50" relative="1" as="geometry">
            <mxPoint x="400.19000000000005" y="624" as="sourcePoint" />
            <mxPoint x="400.19000000000005" y="654" as="targetPoint" />
          </mxGeometry>
        </mxCell>
        <mxCell id="997hCacXFFH7ndU-Lx0a-59" value="" style="endArrow=classic;html=1;rounded=0;exitX=0.5;exitY=1;exitDx=0;exitDy=0;entryX=0.5;entryY=0;entryDx=0;entryDy=0;" edge="1" parent="1" source="997hCacXFFH7ndU-Lx0a-57" target="997hCacXFFH7ndU-Lx0a-63">
          <mxGeometry width="50" height="50" relative="1" as="geometry">
            <mxPoint x="419.3500000000001" y="727" as="sourcePoint" />
            <mxPoint x="419.3500000000001" y="763" as="targetPoint" />
          </mxGeometry>
        </mxCell>
        <mxCell id="997hCacXFFH7ndU-Lx0a-60" value="" style="endArrow=classic;html=1;rounded=0;exitX=1;exitY=0.5;exitDx=0;exitDy=0;entryX=1;entryY=0.5;entryDx=0;entryDy=0;" edge="1" parent="1" source="997hCacXFFH7ndU-Lx0a-57" target="997hCacXFFH7ndU-Lx0a-55">
          <mxGeometry width="50" height="50" relative="1" as="geometry">
            <mxPoint x="527.19" y="655" as="sourcePoint" />
            <mxPoint x="527.19" y="691" as="targetPoint" />
            <Array as="points">
              <mxPoint x="512.19" y="683" />
              <mxPoint x="512.19" y="599" />
            </Array>
          </mxGeometry>
        </mxCell>
        <mxCell id="997hCacXFFH7ndU-Lx0a-61" value="Wrong&amp;nbsp;&lt;div&gt;Password&lt;/div&gt;" style="text;html=1;align=center;verticalAlign=middle;whiteSpace=wrap;rounded=0;" vertex="1" parent="1">
          <mxGeometry x="511.19000000000005" y="634" width="72" height="30" as="geometry" />
        </mxCell>
        <mxCell id="997hCacXFFH7ndU-Lx0a-62" value="Right&amp;nbsp;&lt;div&gt;Password&lt;/div&gt;" style="text;html=1;align=center;verticalAlign=middle;whiteSpace=wrap;rounded=0;" vertex="1" parent="1">
          <mxGeometry x="418.19000000000005" y="719" width="66" height="30" as="geometry" />
        </mxCell>
        <mxCell id="997hCacXFFH7ndU-Lx0a-63" value="Check out" style="rounded=0;whiteSpace=wrap;html=1;" vertex="1" parent="1">
          <mxGeometry x="386.44000000000005" y="759" width="67.5" height="30" as="geometry" />
        </mxCell>
        <mxCell id="997hCacXFFH7ndU-Lx0a-64" value="Store License Plate&lt;div&gt;pair with password&lt;/div&gt;" style="rounded=0;whiteSpace=wrap;html=1;" vertex="1" parent="1">
          <mxGeometry x="357.5" y="390" width="125" height="30" as="geometry" />
        </mxCell>
        <mxCell id="997hCacXFFH7ndU-Lx0a-65" value="" style="endArrow=classic;html=1;rounded=0;exitX=0.5;exitY=1;exitDx=0;exitDy=0;entryX=0.5;entryY=0;entryDx=0;entryDy=0;" edge="1" parent="1" source="997hCacXFFH7ndU-Lx0a-64" target="997hCacXFFH7ndU-Lx0a-49">
          <mxGeometry width="50" height="50" relative="1" as="geometry">
            <mxPoint x="420.38" y="455" as="sourcePoint" />
            <mxPoint x="420.38" y="484" as="targetPoint" />
          </mxGeometry>
        </mxCell>
      </root>
    </mxGraphModel>
  </diagram>
</mxfile>
